<mxfile host="Electron" agent="Mozilla/5.0 (X11; Linux x86_64) AppleWebKit/537.36 (KHTML, like Gecko) draw.io/24.7.17 Chrome/128.0.6613.36 Electron/32.0.1 Safari/537.36" version="24.7.17">
  <diagram name="Page-1" id="rE5m4VAgiYEBy6v4etOH">
    <mxGraphModel dx="1434" dy="843" grid="1" gridSize="10" guides="1" tooltips="1" connect="1" arrows="1" fold="1" page="1" pageScale="1" pageWidth="1169" pageHeight="827" math="1" shadow="0">
      <root>
        <mxCell id="0" />
        <mxCell id="1" parent="0" />
        <mxCell id="bEbIlbEOSaB0dLJhlC57-1" value="&lt;font style=&quot;font-size: 48px;&quot;&gt;$$\ket{\psi} = \alpha\ket{0} + \beta\ket{1}$$&lt;/font&gt;" style="text;html=1;align=center;verticalAlign=middle;whiteSpace=wrap;rounded=0;" vertex="1" parent="1">
          <mxGeometry x="385" y="450" width="380" height="80" as="geometry" />
        </mxCell>
        <mxCell id="bEbIlbEOSaB0dLJhlC57-2" value="&lt;font style=&quot;font-size: 48px;&quot;&gt;$$\int_{\tau} \psi^* (\mathbf{r}, t) \psi(\mathbf{r}, t) = 1$$&lt;/font&gt;" style="text;html=1;align=center;verticalAlign=middle;whiteSpace=wrap;rounded=0;" vertex="1" parent="1">
          <mxGeometry x="280" y="190" width="570" height="170" as="geometry" />
        </mxCell>
      </root>
    </mxGraphModel>
  </diagram>
</mxfile>
